<svg width="46" height="28" viewBox="0 0 46 28" fill="none" xmlns="http://www.w3.org/2000/svg">
<path d="M0 16.7464C0 10.0478 3.93392 4.46571 11.8017 0L13.0087 2.00957C9.9689 3.70654 7.4208 5.85007 5.36443 8.44019C3.39747 11.0303 2.41399 13.7097 2.41399 16.4785C2.41399 19.2472 3.17396 21.4354 4.69388 23.0431C6.30321 24.6507 8.13606 25.4545 10.1924 25.4545C11.0865 25.4545 11.5335 25.0973 11.5335 24.3828C11.5335 23.5789 11.1312 23.1324 10.3265 23.0431C8.00195 22.5072 6.83965 20.8102 6.83965 17.9522C6.83965 16.0766 7.5102 14.5582 8.85131 13.3971C10.2818 12.1467 11.9806 11.5215 13.9475 11.5215C16.0039 11.5215 17.7026 12.2807 19.0437 13.799C20.4742 15.2281 21.1895 17.1037 21.1895 19.4258C21.1895 21.748 20.2507 23.7576 18.3732 25.4545C16.585 27.1515 14.171 28 11.1312 28C8.09135 28 5.45384 26.9729 3.21866 24.9187C1.07289 22.8644 0 20.1404 0 16.7464ZM24.8105 16.7464C24.8105 10.0478 28.7444 4.46571 36.6122 0L37.8192 2.00957C34.7794 3.70654 32.2313 5.85007 30.1749 8.44019C28.208 11.0303 27.2245 13.7097 27.2245 16.4785C27.2245 19.2472 27.9845 21.4354 29.5044 23.0431C31.1137 24.6507 32.9466 25.4545 35.0029 25.4545C35.897 25.4545 36.344 25.0973 36.344 24.3828C36.344 23.5789 35.9417 23.1324 35.137 23.0431C32.8124 22.5072 31.6501 20.8102 31.6501 17.9522C31.6501 16.0766 32.3207 14.5582 33.6618 13.3971C35.0923 12.1467 36.7911 11.5215 38.758 11.5215C40.8144 11.5215 42.5131 12.2807 43.8542 13.799C45.2847 15.2281 46 17.1037 46 19.4258C46 21.748 45.0612 23.7576 43.1837 25.4545C41.3955 27.1515 38.9815 28 35.9417 28C32.9018 28 30.2643 26.9729 28.0292 24.9187C25.8834 22.8644 24.8105 20.1404 24.8105 16.7464Z" fill="white"/>
</svg>
